<?xml version="1.0" encoding="utf-8"?>
<svg viewBox="131.599 37.947 194.845 182.952" xmlns="http://www.w3.org/2000/svg">
  <path
    d="M 208.879 125.387 L 206.176 125.387 C 204.21 125.385 202.243 125.355 200.277 125.387 C 196.81 125.443 193.596 128.713 193.593 132.152 C 193.59 134.734 193.611 137.317 193.587 139.897 C 193.574 141.127 193.868 142.252 194.534 143.273 C 196.032 145.569 198.175 146.905 200.893 146.843 C 204.613 146.758 207.982 143.334 207.974 139.389 C 207.966 136.356 207.966 133.323 207.93 130.292 C 207.914 128.965 208.022 127.684 208.632 126.474 C 208.783 126.176 208.79 125.806 208.879 125.387 M 240.241 130.125 C 240.409 130.412 240.478 130.612 240.612 130.743 C 242.496 132.566 244.399 134.368 246.277 136.197 C 248.909 138.758 252.66 139.092 255.41 136.699 C 257.721 134.686 259.884 132.471 261.909 130.168 C 263.138 128.773 263.765 126.968 263.34 125.016 C 262.933 123.159 262.04 121.551 260.514 120.391 C 258.696 119.008 256.686 118.444 254.393 119.077 C 252.788 119.52 251.513 120.427 250.367 121.565 C 248.273 123.646 246.186 125.732 244.104 127.825 C 243.163 128.771 242.123 129.543 240.789 129.84 C 240.641 129.873 240.51 129.982 240.241 130.125 M 193.646 106.268 C 193.86 106.287 194.072 106.355 194.252 106.311 C 196.45 105.764 198.67 105.496 200.939 105.616 C 201.812 105.662 201.939 105.472 201.937 104.491 C 201.925 94.573 201.911 84.655 201.892 74.736 C 201.89 74.289 201.893 73.823 201.778 73.396 C 200.683 69.333 195.762 66.311 191.436 70.047 C 191.097 70.342 190.777 70.661 190.48 71.001 C 189.934 71.619 189.945 71.765 190.497 72.325 C 192.55 74.407 193.624 76.907 193.616 79.83 C 193.593 88.477 193.541 97.124 193.509 105.769 C 193.507 105.923 193.591 106.077 193.646 106.268 M 181.313 113.297 C 181.82 113.014 182.107 112.933 182.281 112.746 C 183.926 110.977 185.921 109.647 188.062 108.637 C 189.537 107.938 189.997 107.153 189.974 105.502 C 189.856 97.18 189.92 88.856 189.903 80.533 C 189.899 79.754 189.823 78.978 189.676 78.215 C 189.046 74.896 185.323 72.626 182.098 73.504 C 180.24 74.007 178.909 75.101 177.984 76.759 C 177.299 77.985 177.329 78.112 178.317 79.039 C 180.465 81.054 181.483 83.571 181.521 86.496 C 181.532 87.356 181.487 88.216 181.487 89.078 C 181.481 96.334 181.483 103.592 181.469 110.85 C 181.467 111.569 181.38 112.287 181.313 113.297 M 250.961 157.91 C 250.422 157.87 250.223 157.833 250.026 157.843 C 247.317 157.984 244.613 157.513 242.111 156.464 C 241.418 156.175 240.991 156.326 240.499 156.833 C 238.384 159.004 236.239 161.143 234.099 163.289 C 229.908 167.493 225.71 171.694 221.516 175.896 C 220.515 176.9 219.694 178.034 219.477 179.46 C 219.073 182.099 220.041 184.232 222.184 185.759 C 224.308 187.273 226.348 187.371 228.53 186.209 C 229.03 185.943 229.235 185.622 229.149 185.034 C 228.871 183.14 229.317 181.337 230.208 179.707 C 230.805 178.61 231.637 177.601 232.526 176.716 C 238.436 170.813 244.39 164.958 250.317 159.074 C 250.567 158.825 250.678 158.434 250.961 157.91 M 237.596 154.53 C 237.43 154.372 237.333 154.233 237.2 154.162 C 235.131 153.069 233.28 151.604 231.744 149.839 C 231.179 149.192 231.016 149.215 230.372 149.862 C 226.391 153.875 222.415 157.891 218.428 161.897 C 215.51 164.828 212.583 167.752 209.649 170.669 C 208.521 171.793 207.664 173.072 207.421 174.672 C 206.758 179.036 210.987 182.288 214.2 181.896 C 215.613 181.723 215.768 181.69 215.809 180.33 C 215.888 177.674 216.814 175.375 218.685 173.484 C 219.663 172.495 220.696 171.561 221.682 170.58 C 226.82 165.465 231.95 160.344 237.08 155.22 C 237.271 155.027 237.408 154.783 237.596 154.53 M 178.161 125.673 L 177.781 125.628 C 177.809 124.999 177.856 124.372 177.861 123.745 C 177.887 120.263 177.922 116.779 177.917 113.297 C 177.909 107.152 177.873 101.005 177.854 94.857 C 177.848 92.111 177.905 89.362 177.824 86.619 C 177.796 85.662 177.604 84.636 177.202 83.776 C 175.962 81.121 172.95 79.667 170.278 80.282 C 167.255 80.978 165.227 83.474 165.221 86.561 C 165.208 92.546 165.221 98.531 165.215 104.514 C 165.199 117.796 165.16 131.077 165.183 144.358 C 165.186 146.025 165.408 147.713 165.712 149.357 C 166.475 153.484 168.138 157.25 170.545 160.685 C 173.855 165.407 178.203 168.85 183.501 171.083 C 187.327 172.696 191.325 173.405 195.484 173.317 C 198.215 173.261 200.847 172.765 203.441 171.953 C 204.195 171.718 204.684 171.245 205.108 170.604 C 205.604 169.857 206.121 169.103 206.75 168.473 C 211.842 163.361 216.949 158.265 222.07 153.185 C 222.766 152.494 223.248 151.708 223.381 150.743 C 223.691 148.473 223.944 146.196 224.278 143.93 C 224.419 142.969 224.088 142.289 223.419 141.64 C 221.861 140.129 220.354 138.561 218.811 137.033 C 215.802 134.052 214.95 128.626 217.585 124.816 C 217.772 124.546 217.856 124.209 218.022 123.823 C 216.642 123.549 215.67 124.107 214.742 124.686 C 212.657 125.989 211.46 127.827 211.476 130.366 C 211.498 133.439 211.482 136.514 211.488 139.59 C 211.504 146.201 205.704 151.28 199.172 150.31 C 193.999 149.54 190.205 145.532 189.928 140.348 C 189.842 138.755 189.885 137.157 189.887 135.562 C 189.889 134.17 189.8 132.765 189.954 131.39 C 190.41 127.318 192.912 123.661 197.32 122.305 C 198.991 121.791 200.692 121.748 202.421 121.761 C 207.789 121.799 213.157 121.75 218.524 121.816 C 219.847 121.831 221.015 121.525 222.157 120.929 C 224.546 119.684 226 116.71 225.425 114.217 C 224.75 111.299 221.99 109.096 218.987 109.096 C 212.594 109.095 206.2 109.101 199.805 109.105 C 199.479 109.105 199.147 109.109 198.825 109.151 C 194.919 109.653 191.206 110.712 187.913 112.967 C 183.715 115.843 180.501 119.506 178.775 124.367 C 178.615 124.818 178.367 125.238 178.161 125.673 M 262.417 151.552 L 262.633 151.808 C 261.853 152.576 261.064 153.335 260.291 154.113 C 253.644 160.794 247 167.483 240.353 174.168 C 238.417 176.116 236.46 178.041 234.548 180.014 C 232.173 182.469 232.151 185.369 234.061 188.044 C 235.511 190.076 238.422 191.022 240.812 190.297 C 242.068 189.916 243.067 189.17 243.978 188.259 C 249.571 182.665 255.163 177.07 260.764 171.484 C 268.543 163.729 276.346 155.999 284.106 148.225 C 287.512 144.81 290.035 140.826 291.479 136.189 C 292.685 132.317 293.278 128.397 292.771 124.328 C 292.444 121.707 291.892 119.154 290.911 116.716 C 288.935 111.802 285.969 107.602 281.764 104.3 C 278.293 101.576 274.444 99.666 270.159 98.638 C 266.944 97.869 263.686 97.693 260.396 98.011 C 257.784 98.258 255.221 98.873 252.78 99.838 C 248.648 101.475 245.051 103.913 241.941 107.103 C 238.965 110.157 235.92 113.141 232.906 116.155 C 231.596 117.464 230.862 119.052 230.944 120.896 C 231.063 123.519 232.503 125.355 234.809 126.448 C 237.158 127.561 239.407 127.151 241.293 125.405 C 243.489 123.375 245.64 121.289 247.686 119.11 C 250.413 116.205 253.687 114.963 257.62 115.414 C 260.387 115.731 262.68 116.942 264.477 119.093 C 267.893 123.181 267.806 129.708 263.84 133.671 C 262.159 135.35 260.484 137.036 258.793 138.709 C 257.486 140.001 255.951 141.026 254.177 141.413 C 250.045 142.311 246.298 141.57 243.208 138.424 C 239.386 134.537 235.517 130.696 231.661 126.843 C 231.053 126.234 230.457 125.596 229.769 125.091 C 227.722 123.589 225.478 123.189 223.204 124.448 C 220.811 125.773 219.425 127.803 219.612 130.667 C 219.713 132.222 220.502 133.45 221.574 134.521 C 226.063 139.017 230.527 143.537 235.062 147.988 C 236.163 149.068 237.433 150.015 238.734 150.851 C 243.627 153.997 249.012 155.024 254.728 154.205 C 257.158 153.857 259.542 153.207 261.668 151.865 C 261.893 151.723 262.166 151.655 262.417 151.552 M 203.703 175.665 C 203.245 175.76 203.004 175.79 202.774 175.864 C 200.405 176.611 197.967 176.815 195.496 176.832 C 192.787 176.851 190.099 176.754 187.44 176.139 C 183.695 175.274 180.185 173.907 176.931 171.823 C 170.129 167.466 165.574 161.401 163.07 153.776 C 162.368 151.638 161.88 149.435 161.837 147.155 C 161.8 145.192 161.631 143.232 161.628 141.271 C 161.605 123.438 161.605 105.605 161.6 87.772 C 161.6 86.633 161.469 85.505 161.727 84.359 C 162.658 80.206 165.299 77.71 169.29 76.641 C 170.442 76.335 171.74 76.466 172.96 76.562 C 173.833 76.629 174.046 76.452 174.329 75.741 C 176.112 71.253 180.806 68.766 185.486 69.84 C 186.294 70.026 186.765 69.867 187.234 69.187 C 189.081 66.515 191.581 64.884 194.875 64.632 C 196.981 64.471 198.958 64.96 200.749 66.047 C 203.255 67.569 204.803 69.817 205.46 72.67 C 205.55 73.064 205.567 73.482 205.567 73.888 C 205.561 78.603 205.555 83.318 205.53 88.031 C 205.501 93.478 205.452 98.925 205.411 104.369 C 205.404 105.461 205.584 105.63 206.698 105.622 C 211.039 105.598 215.383 105.502 219.722 105.58 C 223.625 105.649 226.312 107.767 228.084 111.114 C 228.574 112.038 229.065 113.021 228.833 114.158 C 228.808 114.281 228.951 114.439 229.062 114.685 C 229.338 114.494 229.584 114.373 229.767 114.19 C 233.585 110.36 237.309 106.433 241.235 102.716 C 244.636 99.495 248.69 97.293 253.177 95.86 C 259.655 93.79 266.151 93.703 272.662 95.529 C 277.84 96.979 282.367 99.61 286.261 103.351 C 290.339 107.268 293.292 111.879 294.952 117.27 C 295.526 119.14 295.889 121.095 296.134 123.038 C 296.384 125.018 296.561 127.045 296.433 129.029 C 296.22 132.383 295.643 135.702 294.418 138.862 C 292.984 142.56 291.049 145.974 288.422 148.954 C 287.042 150.521 285.539 151.979 284.062 153.458 C 274.278 163.269 264.486 173.072 254.69 182.87 C 251.793 185.77 248.873 188.644 245.931 191.497 C 242.28 195.032 236.285 195.172 232.467 191.821 C 231.889 191.315 231.44 190.659 230.951 190.055 C 230.347 189.312 230.257 189.285 229.44 189.758 C 228.18 190.487 226.759 190.541 225.387 190.501 C 221.815 190.396 219.039 188.796 217.15 185.729 C 216.886 185.3 216.683 184.872 216.018 185.094 C 213.759 185.849 211.568 185.488 209.453 184.552 C 206.55 183.268 204.837 180.966 204.035 177.955 C 203.85 177.26 203.822 176.523 203.703 175.665"
    style="stroke: #ffffff; fill: #ffffff;" transform="matrix(1, 0, 0, 1, 0, 1.4210854715202004e-14)" />
</svg>